<svg width="17" height="18" viewBox="0 0 17 18" fill="none" xmlns="http://www.w3.org/2000/svg">
<path id="Vector" d="M10.657 4.701L4.964 10.3943C4.279 11.0547 4.254 12.1554 4.921 12.8342C5.581 13.5191 6.68199 13.5436 7.36099 12.877C7.37299 12.8648 7.39099 12.8465 7.40399 12.8342L12.95 7.14098C14.326 5.81398 14.362 3.62472 13.036 2.24879C11.715 0.878977 9.526 0.842287 8.15 2.1693C8.119 2.19987 8.095 2.22433 8.064 2.25491L2.518 7.94823C0.494 9.97233 0.494 13.2623 2.518 15.2865C4.542 17.3106 7.832 17.3106 9.856 15.2865L15.261 9.88063" stroke="#697082" stroke-width="1.5" stroke-linecap="round" stroke-linejoin="round"/>
</svg>
